<svg width="180" height="180" viewBox="0 0 180 180" fill="none" xmlns="http://www.w3.org/2000/svg">
<g clip-path="url(#clip0_814_11)">
<rect width="180" height="180" rx="30" fill="#EDDFDE"/>
<path d="M122.84 131.071C120.856 131.071 119.128 130.431 117.656 129.151C116.184 127.871 115.448 125.791 115.448 122.911C115.448 120.159 115.928 117.055 116.888 113.599C117.912 110.207 119.256 106.623 120.92 102.847C122.648 99.0709 124.504 95.2949 126.488 91.5189C128.6 87.4229 130.776 83.4869 133.016 79.7109C135.256 75.8709 137.112 72.5109 138.584 69.6309C139.48 67.9669 140.184 66.5269 140.696 65.3109C141.208 64.0949 141.464 63.1349 141.464 62.4309C141.464 61.4709 140.952 60.9909 139.928 60.9909C139.096 60.9909 137.72 61.3749 135.8 62.1429C134.328 62.7829 132.824 63.5829 131.288 64.5429C129.752 65.5029 128.408 66.4629 127.256 67.4229C120.344 73.1829 114.104 79.7429 108.536 87.1029C103.032 94.4629 97.88 101.855 93.08 109.279C92.696 109.855 92.216 110.143 91.64 110.143C91.192 110.143 90.776 109.983 90.392 109.663C90.072 109.343 89.912 108.959 89.912 108.511C89.912 108.191 90.008 107.903 90.2 107.647C93.72 101.951 96.728 96.4469 99.224 91.1349C101.784 85.8229 104.152 79.9669 106.328 73.5669C107.032 71.6469 107.512 69.9829 107.768 68.5749C108.024 67.1029 108.152 65.8549 108.152 64.8309C108.152 62.2709 107.288 60.9909 105.56 60.9909C105.176 60.9909 104.728 61.0869 104.216 61.2789C102.296 61.8549 100.248 63.1669 98.072 65.2149C95.896 67.1989 93.624 69.6949 91.256 72.7029C88.952 75.6469 86.584 78.8789 84.152 82.3989C81.72 85.8549 79.288 89.3749 76.856 92.9589C76.344 93.7269 75.64 94.8149 74.744 96.2229C73.912 97.6309 73.016 99.1669 72.056 100.831C71.096 102.495 70.168 104.095 69.272 105.631C68.376 107.103 67.64 108.319 67.064 109.279C66.552 110.239 66.296 110.719 66.296 110.719C65.976 111.295 65.464 111.583 64.76 111.583C64.312 111.583 63.928 111.455 63.608 111.199C63.288 110.879 63.128 110.527 63.128 110.143C63.128 109.823 63.224 109.535 63.416 109.279C63.416 109.279 63.736 108.703 64.376 107.551C65.08 106.335 65.976 104.735 67.064 102.751C68.152 100.767 69.336 98.6229 70.616 96.3189C71.896 94.0149 73.144 91.7109 74.36 89.4069C75.64 87.1029 76.76 85.0229 77.72 83.1669C80.472 77.8549 82.392 73.3429 83.48 69.6309C84.632 65.9189 85.208 62.8149 85.208 60.3189C85.208 57.0549 84.472 54.7509 83 53.4069C81.528 52.0629 79.864 51.3589 78.008 51.2949C73.848 51.1029 69.816 51.8389 65.912 53.5029C62.072 55.1029 58.488 57.3109 55.16 60.1269C51.896 62.9429 49.016 66.0469 46.52 69.4389C44.024 72.8309 42.072 76.2549 40.664 79.7109C39.32 83.1029 38.648 86.2069 38.648 89.0229C38.648 91.7749 39.448 94.0469 41.048 95.8389C42.648 97.6309 45.208 98.5269 48.728 98.5269C51.224 98.5269 53.464 97.9509 55.448 96.7989C57.432 95.6469 59.128 94.1749 60.536 92.3829C61.944 90.5909 63.032 88.7029 63.8 86.7189C64.568 84.7349 64.952 82.9109 64.952 81.2469C64.952 79.8389 64.632 78.6549 63.992 77.6949C63.416 76.7349 62.488 76.2229 61.208 76.1589C60.76 76.1589 60.408 76.0309 60.152 75.7749C59.96 75.4549 59.864 75.1349 59.864 74.8149C59.864 74.3669 59.992 73.9829 60.248 73.6629C60.568 73.2789 60.984 73.0869 61.496 73.0869C63.864 73.0869 65.592 73.8869 66.68 75.4869C67.768 77.0229 68.312 78.9109 68.312 81.1509C68.312 83.2629 67.832 85.5029 66.872 87.8709C65.976 90.2389 64.664 92.4789 62.936 94.5909C61.208 96.7029 59.128 98.4309 56.696 99.7749C54.264 101.055 51.512 101.695 48.44 101.695C43.768 101.695 40.344 100.511 38.168 98.1429C36.056 95.7109 35 92.6709 35 89.0229C35 85.6309 35.8 81.9189 37.4 77.8869C39.064 73.8549 41.368 69.9509 44.312 66.1749C47 62.7189 50.136 59.5829 53.72 56.7669C57.368 53.9509 61.304 51.7429 65.528 50.1429C69.752 48.5429 74.04 47.8389 78.392 48.0309C81.528 48.1589 83.992 49.2149 85.784 51.1989C87.64 53.1829 88.568 56.0629 88.568 59.8389C88.568 62.3349 88.12 65.2149 87.224 68.4789C86.392 71.6789 85.048 75.2949 83.192 79.3269C84.28 77.6629 85.656 75.6149 87.32 73.1829C88.984 70.7509 90.84 68.3509 92.888 65.9829C94.936 63.6149 97.08 61.6309 99.32 60.0309C101.56 58.3669 103.768 57.5349 105.944 57.5349C107.928 57.5349 109.336 58.2069 110.168 59.5509C111 60.8309 111.416 62.4309 111.416 64.3509C111.416 66.2069 111.16 68.2229 110.648 70.3989C110.136 72.5749 109.496 74.7189 108.728 76.8309C107.96 78.9429 107.192 80.8949 106.424 82.6869C105.72 84.4149 105.144 85.7909 104.696 86.8149C106.168 84.9589 107.96 82.7829 110.072 80.2869C112.248 77.7269 114.616 75.1349 117.176 72.5109C119.736 69.8229 122.36 67.3269 125.048 65.0229C127.8 62.7189 130.52 60.8629 133.208 59.4549C135.96 58.0469 138.552 57.3429 140.984 57.3429C143.864 57.3429 145.304 58.6869 145.304 61.3749C145.304 63.3589 144.536 65.7589 143 68.5749C142.488 69.5349 141.56 71.1989 140.216 73.5669C138.872 75.8709 137.304 78.6549 135.512 81.9189C133.72 85.1189 131.864 88.5749 129.944 92.2869C128.088 95.9989 126.328 99.7109 124.664 103.423C123.064 107.071 121.752 110.495 120.728 113.695C119.704 116.959 119.192 119.743 119.192 122.047C119.192 123.839 119.576 125.247 120.344 126.271C121.112 127.295 122.392 127.807 124.184 127.807C125.656 127.807 127.16 127.359 128.696 126.463C130.296 125.567 131.544 124.607 132.44 123.583C132.76 123.071 133.176 122.815 133.688 122.815C134.392 122.815 134.744 123.231 134.744 124.063C134.744 124.447 134.552 124.895 134.168 125.407C132.76 127.071 131.032 128.415 128.984 129.439C126.936 130.527 124.888 131.071 122.84 131.071Z" fill="#B47C53" stroke="#B47C53" stroke-width="2"/>
</g>
<defs>
<clipPath id="clip0_814_11">
<rect width="180" height="180" fill="white"/>
</clipPath>
</defs>
</svg>
